<svg xmlns="http://www.w3.org/2000/svg" viewBox="0 -3 54 54">
    <path d="M51 6h-3v-3c0-1.65-1.35-3-3-3h-42c-1.65 0-3 1.35-3 3v36c0 1.65 1.35 3 3 3h3v3c0 1.65 1.35 3 3 3h42c1.65 0 3-1.35 3-3v-36c0-1.65-1.35-3-3-3zM6 9v30h-2.995c-0.002-0.002-0.004-0.004-0.005-0.005v-35.989c0.002-0.002 0.004-0.004 0.005-0.005h41.989c0.002 0.002 0.004 0.004 0.005 0.005v2.995h-36c-1.65 0-3 1.35-3 3v0zM51 44.995c-0.002 0.002-0.004 0.004-0.005 0.005h-41.989c-0.002-0.002-0.004-0.004-0.005-0.005v-35.989c0.002-0.002 0.004-0.004 0.005-0.005h41.989c0.002 0.002 0.004 0.004 0.005 0.005v35.989z"/>
    <path d="M45 16.5c0 2.485-2.015 4.5-4.5 4.5s-4.5-2.015-4.5-4.5 2.015-4.5 4.5-4.5 4.5 2.015 4.5 4.5z"/>
    <path d="M48 42h-36v-6l10.5-18 12 15h3l10.5-9z"/>
</svg>
